<?xml version="1.0" standalone="no"?>
<!DOCTYPE svg PUBLIC "-//W3C//DTD SVG 20010904//EN"
 "http://www.w3.org/TR/2001/REC-SVG-20010904/DTD/svg10.dtd">
<svg version="1.0" xmlns="http://www.w3.org/2000/svg"
 width="512.000000pt" height="512.000000pt" viewBox="0 0 512.000000 512.000000"
 preserveAspectRatio="xMidYMid meet">
<metadata>
Created by potrace 1.14, written by Peter Selinger 2001-2017
</metadata>
<g transform="translate(0.000000,512.000000) scale(0.100000,-0.100000)"
fill="#000000" stroke="none">
<path d="M0 2560 l0 -2560 2560 0 2560 0 0 2560 0 2560 -2560 0 -2560 0 0
-2560z m2693 1733 c3 -5 -5 -8 -18 -8 -13 0 -21 3 -18 8 2 4 10 7 18 7 8 0 16
-3 18 -7z m51 -83 c11 -14 6 -11 -11 7 -18 18 -33 38 -33 45 0 7 6 4 12 -7 6
-11 20 -31 32 -45z m-1231 33 c-7 -2 -21 -2 -30 0 -10 3 -4 5 12 5 17 0 24 -2
18 -5z m250 0 c-7 -2 -21 -2 -30 0 -10 3 -4 5 12 5 17 0 24 -2 18 -5z m-326
-9 c-3 -3 -12 -4 -19 -1 -8 3 -5 6 6 6 11 1 17 -2 13 -5z m380 0 c-3 -3 -12
-4 -19 -1 -8 3 -5 6 6 6 11 1 17 -2 13 -5z m-430 -10 c-3 -3 -12 -4 -19 -1 -8
3 -5 6 6 6 11 1 17 -2 13 -5z m480 0 c-3 -3 -12 -4 -19 -1 -8 3 -5 6 6 6 11 1
17 -2 13 -5z m-520 -10 c-3 -3 -12 -4 -19 -1 -8 3 -5 6 6 6 11 1 17 -2 13 -5z
m1254 -14 c-13 -11 -28 -20 -35 -20 -6 0 3 9 19 19 39 25 46 25 16 1z m104
-80 l-27 -28 -32 31 -32 32 30 31 29 31 30 -34 30 -34 -28 -29z m-1435 70 c-8
-5 -19 -10 -25 -10 -5 0 -3 5 5 10 8 5 20 10 25 10 6 0 3 -5 -5 -10z m515 -5
c48 -9 122 -30 163 -47 78 -33 201 -110 239 -150 l22 -23 -292 0 c-221 -1
-326 -5 -432 -19 -162 -20 -378 -59 -482 -85 l-73 -19 12 22 c126 243 491 382
843 321z m-556 -9 c-10 -9 -89 -46 -89 -41 0 6 72 44 84 45 5 0 7 -2 5 -4z
m811 -16 c22 -11 40 -23 40 -25 0 -5 -79 32 -89 41 -11 10 14 2 49 -16z m767
-24 c-4 -9 -12 -16 -19 -16 -9 0 -8 3 2 10 13 8 13 13 1 32 -12 22 -12 22 4 6
10 -9 15 -23 12 -32z m-166 -67 c6 -11 8 -23 6 -26 -3 -2 -8 5 -12 16 -3 12
-26 35 -51 51 -24 17 -44 33 -44 36 0 11 91 -58 101 -77z m-416 -44 c47 -46
51 -51 11 -14 -34 30 -80 68 -103 84 -50 32 -57 44 -12 18 18 -10 64 -49 104
-88z m523 68 c-14 -16 -30 -37 -36 -48 -6 -11 -12 -15 -12 -8 0 13 57 83 68
83 3 0 -6 -12 -20 -27z m-1695 -28 c-29 -25 -73 -69 -99 -98 -48 -53 -43 -40
10 23 28 34 126 120 136 120 2 0 -19 -20 -47 -45z m1604 -57 c-3 -8 -6 -5 -6
6 -1 11 2 17 5 13 3 -3 4 -12 1 -19z m-274 -65 c-7 -2 -21 -2 -30 0 -10 3 -4
5 12 5 17 0 24 -2 18 -5z m70 -10 c-7 -2 -19 -2 -25 0 -7 3 -2 5 12 5 14 0 19
-2 13 -5z m70 -10 c-7 -2 -19 -2 -25 0 -7 3 -2 5 12 5 14 0 19 -2 13 -5z
m-193 -27 c207 -26 196 -23 192 -63 -3 -19 -7 -31 -11 -26 -19 29 -700 70
-813 49 -31 -6 -34 -9 -30 -35 l4 -29 167 5 c203 7 513 -14 639 -42 18 -4 22
-1 22 16 0 12 2 20 5 17 3 -2 2 -26 -1 -51 -5 -35 -10 -45 -18 -37 -35 28
-623 53 -781 32 -44 -6 -50 -10 -53 -32 -4 -41 8 -50 55 -39 64 14 540 3 658
-15 55 -8 103 -16 108 -16 14 0 7 -40 -8 -40 -23 0 -55 -37 -55 -65 0 -18 -4
-23 -16 -18 -19 7 -62 -15 -69 -36 -4 -14 -37 -16 -282 -17 -333 0 -620 -29
-865 -88 l-57 -13 -12 30 c-9 22 -30 38 -83 63 -80 39 -132 43 -168 15 -27
-22 -87 -35 -105 -24 -10 7 -109 215 -115 244 -6 25 277 112 537 164 149 30
335 56 500 69 102 8 544 -4 655 -18z m245 14 c3 -6 -1 -7 -9 -4 -18 7 -21 14
-7 14 6 0 13 -4 16 -10z m2 -72 c-3 -8 -6 -5 -6 6 -1 11 2 17 5 13 3 -3 4 -12
1 -19z m-1770 -34 c-3 -3 -12 -4 -19 -1 -8 3 -5 6 6 6 11 1 17 -2 13 -5z
m1760 -26 c-3 -8 -6 -5 -6 6 -1 11 2 17 5 13 3 -3 4 -12 1 -19z m-1867 -8 c-8
-5 -19 -10 -25 -10 -5 0 -3 5 5 10 8 5 20 10 25 10 6 0 3 -5 -5 -10z m-80 -30
c-8 -5 -19 -10 -25 -10 -5 0 -3 5 5 10 8 5 20 10 25 10 6 0 3 -5 -5 -10z
m1937 -12 c-3 -8 -6 -5 -6 6 -1 11 2 17 5 13 3 -3 4 -12 1 -19z m324 -5 c13
-16 12 -17 -3 -4 -17 13 -22 21 -14 21 2 0 10 -8 17 -17z m-20 -19 c17 -16 17
-17 -4 -34 -20 -17 -24 -17 -40 -3 -16 15 -16 17 -1 35 21 22 23 22 45 2z
m-93 -14 c-7 -10 -14 -17 -17 -15 -4 4 18 35 25 35 2 0 -1 -9 -8 -20z m-221
-22 c-3 -7 -5 -2 -5 12 0 14 2 19 5 13 2 -7 2 -19 0 -25z m-60 -20 c-3 -7 -5
-2 -5 12 0 14 2 19 5 13 2 -7 2 -19 0 -25z m411 15 c-15 -9 -31 -26 -37 -37
-5 -12 -10 -15 -10 -8 -1 15 47 62 63 62 6 0 -1 -8 -16 -17z m-2279 -68 c0 -5
-8 6 -19 25 -11 19 -19 40 -19 45 0 6 8 -6 19 -25 11 -19 19 -39 19 -45z
m2200 31 c-3 -3 -11 5 -18 17 -13 21 -12 21 5 5 10 -10 16 -20 13 -22z m-242
8 c-3 -3 -12 -4 -19 -1 -8 3 -5 6 6 6 11 1 17 -2 13 -5z m62 -63 c0 -10 -4 -7
-10 8 -5 14 -13 30 -17 36 -4 6 1 2 11 -8 9 -11 17 -27 16 -36z m-49 -3 c10
-24 31 -190 25 -196 -13 -14 -68 178 -59 203 9 22 23 18 34 -7z m1999 -13 l39
-36 22 31 c17 24 29 30 57 30 41 0 192 -61 242 -98 30 -22 33 -28 28 -63 -3
-22 -1 -42 4 -45 21 -12 1 -135 -24 -151 -7 -4 -30 -10 -51 -13 -40 -5 -63
-30 -28 -30 11 0 31 -9 46 -21 22 -18 26 -28 26 -76 0 -53 -2 -58 -41 -94 -94
-87 -270 -145 -471 -156 l-117 -6 -22 37 -22 37 -21 -20 c-38 -36 -72 -41
-276 -41 -294 0 -312 11 -318 190 l-4 105 -33 16 c-27 13 -36 13 -51 2 -10 -7
-37 -13 -61 -13 l-43 0 0 -132 c0 -73 -4 -138 -8 -144 -14 -21 -51 -34 -97
-34 -59 0 -95 32 -95 84 l0 34 -34 -34 c-39 -39 -83 -45 -110 -15 -18 19 -19
19 -72 -25 -75 -60 -97 -58 -157 14 -38 47 -35 78 14 128 l41 41 -31 22 c-39
28 -45 50 -30 115 10 47 9 57 -5 77 -24 35 -22 123 4 149 11 11 26 20 34 20
10 0 17 17 23 51 11 71 39 92 108 82 36 -4 57 -14 76 -34 l26 -28 11 24 c14
31 61 38 239 33 165 -4 173 -8 173 -79 0 -27 3 -49 8 -49 11 0 119 67 169 105
25 19 56 35 69 35 12 0 43 -15 67 -34 l45 -34 28 29 c16 16 38 32 50 35 24 6
108 -33 192 -90 54 -36 54 -36 70 -15 10 11 47 30 83 43 36 13 86 35 110 49
58 35 71 34 118 -8z m-2058 -107 c12 -33 51 -104 87 -157 78 -117 88 -138 97
-221 9 -86 32 -195 99 -480 72 -305 90 -410 83 -486 -13 -137 -83 -243 -183
-278 l-49 -17 -49 53 c-96 104 -91 58 -94 747 l-3 604 -50 56 c-59 65 -112
154 -107 178 6 32 28 24 60 -23 48 -70 97 -122 120 -130 39 -12 38 12 -4 66
-50 67 -92 155 -84 177 11 27 51 -20 77 -89z m116 55 c-3 -10 -5 -2 -5 17 0
19 2 27 5 18 2 -10 2 -26 0 -35z m-1968 -38 c0 -5 -8 6 -19 25 -11 19 -19 40
-19 45 0 6 8 -6 19 -25 11 -19 19 -39 19 -45z m-386 0 c-3 -9 -8 -14 -10 -11
-3 3 -2 9 2 15 9 16 15 13 8 -4z m2364 -52 c-3 -10 -5 -4 -5 12 0 17 2 24 5
18 2 -7 2 -21 0 -30z m-2391 -1 c-17 -16 -18 -16 -5 5 7 12 15 20 18 17 3 -2
-3 -12 -13 -22z m151 -38 c18 -8 33 -20 33 -28 0 -7 -22 -32 -50 -55 -31 -26
-53 -54 -58 -74 -6 -25 -14 -32 -32 -32 -15 0 -25 6 -26 15 0 9 1 10 3 3 8
-23 43 -15 43 9 0 14 21 42 55 74 55 52 67 74 41 74 -19 0 -64 37 -77 63 -6
14 -2 12 12 -7 12 -16 37 -35 56 -42z m594 34 c72 -37 82 -58 55 -123 -20 -47
-40 -41 -46 15 -5 42 -7 45 -44 52 -39 8 -100 63 -89 81 10 16 63 5 124 -25z
m-321 19 c0 -2 -10 -12 -22 -23 l-23 -19 19 23 c18 21 26 27 26 19z m-352
-124 l-30 -31 -27 30 -27 30 30 32 29 33 28 -31 28 -31 -31 -32z m437 70 c14
-16 37 -44 50 -63 25 -35 25 -36 8 -89 -19 -57 -59 -109 -73 -95 -5 5 -5 39 0
78 10 78 2 107 -38 149 -22 23 -24 29 -12 37 24 15 38 12 65 -17z m125 -35
c22 -33 40 -71 40 -83 0 -26 -72 -167 -87 -172 -22 -8 -22 31 1 85 45 107 44
113 -22 201 l-23 31 26 0 c20 0 33 -12 65 -62z m913 55 c-7 -2 -19 -2 -25 0
-7 3 -2 5 12 5 14 0 19 -2 13 -5z m511 1 c9 -3 16 -11 16 -16 0 -5 10 -23 21
-40 14 -19 18 -33 12 -39 -6 -6 -22 9 -44 40 -18 28 -43 52 -54 54 -15 3 -13
5 7 6 14 0 33 -2 42 -5z m-2094 -24 c-14 -11 -28 -20 -32 -20 -16 0 -7 -39 10
-44 11 -4 30 -19 43 -34 l24 -27 -25 21 c-14 12 -35 27 -47 33 -33 17 -28 46
10 70 40 26 50 27 17 1z m363 -12 c-11 -13 -28 -36 -36 -53 -9 -16 -16 -26
-17 -22 -1 20 54 97 68 97 3 0 -4 -10 -15 -22z m98 -37 c31 -31 33 -47 23
-138 -5 -41 -11 -53 -24 -53 -13 0 -19 12 -23 50 -7 59 -22 90 -44 90 -12 0
-14 -7 -8 -32 3 -18 9 -51 12 -73 7 -52 29 -77 68 -75 79 5 104 0 110 -19 7
-23 37 -35 64 -26 19 6 62 75 98 159 17 40 23 47 28 33 10 -25 -77 -167 -145
-237 -30 -30 -81 -69 -112 -85 -67 -35 -62 -21 -78 -230 -14 -202 -15 -278 0
-306 7 -13 44 -76 82 -140 l69 -117 -42 -173 c-23 -96 -44 -176 -46 -179 -10
-10 -136 137 -199 230 -75 114 -129 227 -139 291 -8 56 15 185 86 479 28 113
56 246 64 297 22 145 49 226 90 267 23 22 32 20 66 -13z m1976 -8 c-3 -10 -5
-4 -5 12 0 17 2 24 5 18 2 -7 2 -21 0 -30z m-596 -130 c84 -113 149 -265 164
-383 l7 -55 -33 32 c-65 61 -144 78 -230 48 -46 -17 -114 -63 -104 -73 3 -3
11 0 17 6 16 16 33 15 21 0 -33 -41 -19 -126 27 -172 26 -26 38 -31 79 -31 39
0 55 5 75 24 38 36 52 91 37 142 -16 53 -25 43 -22 -26 1 -50 -2 -59 -29 -87
-27 -27 -36 -30 -71 -25 -47 6 -76 35 -85 84 -8 42 15 96 47 113 13 7 19 8 15
2 -3 -6 -2 -13 4 -17 5 -3 10 1 10 9 0 73 148 45 199 -38 30 -49 27 -94 -10
-139 -36 -43 -29 -47 18 -11 l34 26 -6 -39 c-14 -83 -37 -161 -67 -225 -26
-58 -40 -74 -106 -123 -164 -123 -265 -147 -437 -105 -193 46 -293 112 -386
252 -114 170 -87 437 79 767 l67 135 135 -2 c135 -2 274 13 375 42 l50 14 44
-46 c24 -26 61 -70 82 -99z m640 52 l10 -20 -16 20 c-9 11 -21 29 -26 40 l-10
20 16 -20 c9 -11 21 -29 26 -40z m-278 -5 c40 -25 47 -34 47 -61 l0 -31 -42
25 c-49 28 -84 70 -74 86 10 16 17 14 69 -19z m-1250 -37 c-4 -10 -14 -31 -23
-48 -20 -37 -71 -168 -81 -210 l-7 -30 -1 30 c-1 35 21 101 56 170 49 95 54
105 58 105 3 0 1 -8 -2 -17z m-676 -35 c-3 -8 -6 -5 -6 6 -1 11 2 17 5 13 3
-3 4 -12 1 -19z m1798 -67 c37 -88 70 -212 62 -234 -3 -7 -6 -4 -6 6 -1 15
-69 228 -97 302 -19 51 9 1 41 -74z m452 -8 c-3 -10 -5 -2 -5 17 0 19 2 27 5
18 2 -10 2 -26 0 -35z m-2260 -10 c-3 -10 -5 -2 -5 17 0 19 2 27 5 18 2 -10 2
-26 0 -35z m471 -45 c-12 -35 -24 -81 -27 -103 -4 -24 -12 -39 -19 -37 -10 2
-11 -7 -6 -33 4 -24 3 -35 -6 -35 -8 0 -9 -10 -5 -29 4 -21 2 -30 -9 -34 -9
-4 -16 -3 -16 1 4 94 45 256 62 246 4 -3 6 1 3 8 -5 12 29 78 39 78 2 0 -5
-28 -16 -62z m1799 -20 c-3 -7 -5 -2 -5 12 0 14 2 19 5 13 2 -7 2 -19 0 -25z
m-2280 0 c-3 -8 -6 -5 -6 6 -1 11 2 17 5 13 3 -3 4 -12 1 -19z m-10 -40 c-3
-8 -6 -5 -6 6 -1 11 2 17 5 13 3 -3 4 -12 1 -19z m2300 -20 c-3 -7 -5 -2 -5
12 0 14 2 19 5 13 2 -7 2 -19 0 -25z m-2310 -30 c-3 -8 -6 -5 -6 6 -1 11 2 17
5 13 3 -3 4 -12 1 -19z m2320 -20 c-3 -8 -6 -5 -6 6 -1 11 2 17 5 13 3 -3 4
-12 1 -19z m-2330 -20 c-3 -8 -6 -5 -6 6 -1 11 2 17 5 13 3 -3 4 -12 1 -19z
m604 -11 c-8 -8 -11 -7 -11 4 0 20 13 34 18 19 3 -7 -1 -17 -7 -23z m1736 -9
c-3 -8 -6 -5 -6 6 -1 11 2 17 5 13 3 -3 4 -12 1 -19z m-2350 -20 c-3 -8 -6 -5
-6 6 -1 11 2 17 5 13 3 -3 4 -12 1 -19z m2017 -4 c21 -8 23 -172 2 -212 -20
-38 -53 -65 -71 -59 -12 5 -15 28 -15 130 0 82 4 127 12 135 13 13 47 16 72 6z
m343 -26 c-3 -8 -6 -5 -6 6 -1 11 2 17 5 13 3 -3 4 -12 1 -19z m-2370 -10 c-3
-8 -6 -5 -6 6 -1 11 2 17 5 13 3 -3 4 -12 1 -19z m280 -45 c-3 -10 -5 -4 -5
12 0 17 2 24 5 18 2 -7 2 -21 0 -30z m410 5 c-3 -7 -5 -2 -5 12 0 14 2 19 5
13 2 -7 2 -19 0 -25z m1690 10 c-3 -8 -6 -5 -6 6 -1 11 2 17 5 13 3 -3 4 -12
1 -19z m-2390 -10 c-3 -8 -6 -5 -6 6 -1 11 2 17 5 13 3 -3 4 -12 1 -19z m574
-15 c13 -16 12 -17 -3 -4 -10 7 -18 15 -18 17 0 8 8 3 21 -13z m1826 -15 c-3
-8 -6 -5 -6 6 -1 11 2 17 5 13 3 -3 4 -12 1 -19z m-2410 -10 c-3 -8 -6 -5 -6
6 -1 11 2 17 5 13 3 -3 4 -12 1 -19z m1920 -30 c-2 -13 -4 -5 -4 17 -1 22 1
32 4 23 2 -10 2 -28 0 -40z m-1361 16 c21 -31 38 -217 23 -246 -9 -16 -12 -17
-38 -4 -72 38 -144 160 -125 214 10 29 64 62 101 62 13 0 30 -11 39 -26z m57
-4 c3 -11 3 -20 1 -20 -2 0 -8 9 -14 20 -6 11 -7 20 -2 20 6 0 12 -9 15 -20z
m84 -2 c-3 -8 -6 -5 -6 6 -1 11 2 17 5 13 3 -3 4 -12 1 -19z m-410 -65 c-3
-10 -5 -2 -5 17 0 19 2 27 5 18 2 -10 2 -26 0 -35z m1594 4 c-10 -9 -11 -8 -5
6 3 10 9 15 12 12 3 -3 0 -11 -7 -18z m546 1 c-3 -8 -6 -5 -6 6 -1 11 2 17 5
13 3 -3 4 -12 1 -19z m-1810 -55 c-2 -16 -4 -5 -4 22 0 28 2 40 4 28 2 -13 2
-35 0 -50z m1820 15 c-3 -8 -6 -5 -6 6 -1 11 2 17 5 13 3 -3 4 -12 1 -19z
m-2470 -10 c-3 -8 -6 -5 -6 6 -1 11 2 17 5 13 3 -3 4 -12 1 -19z m2480 -30
c-3 -8 -6 -5 -6 6 -1 11 2 17 5 13 3 -3 4 -12 1 -19z m-2490 -10 c-3 -8 -6 -5
-6 6 -1 11 2 17 5 13 3 -3 4 -12 1 -19z m2076 -60 c-7 -40 -17 -74 -21 -78 -4
-3 -8 -11 -10 -18 -8 -40 -83 -109 -104 -96 -7 4 -8 3 -4 -4 7 -12 -71 -38
-82 -28 -3 3 2 6 12 6 9 0 19 7 22 15 4 8 10 13 14 10 4 -3 24 13 44 35 20 22
36 36 36 31 0 -6 -5 -13 -10 -16 -6 -4 -7 -11 -4 -17 4 -6 16 1 31 16 13 14
21 31 18 36 -3 6 -1 10 5 10 6 0 9 4 6 8 -3 5 5 17 17 27 13 11 17 20 10 22
-7 3 -9 11 -6 19 3 8 -1 14 -8 14 -10 0 -10 3 -2 11 6 6 9 19 6 28 -3 12 0 11
13 -4 15 -18 16 -19 10 -1 -5 15 8 46 19 46 1 0 -4 -32 -12 -72z m-2086 10
c-3 -8 -6 -5 -6 6 -1 11 2 17 5 13 3 -3 4 -12 1 -19z m2520 -30 c-3 -8 -6 -5
-6 6 -1 11 2 17 5 13 3 -3 4 -12 1 -19z m-2530 -20 c-3 -8 -6 -5 -6 6 -1 11 2
17 5 13 3 -3 4 -12 1 -19z m567 -43 c7 -34 -7 -15 -19 25 -5 16 -4 22 3 15 5
-5 12 -23 16 -40z m1973 23 c-3 -8 -6 -5 -6 6 -1 11 2 17 5 13 3 -3 4 -12 1
-19z m-1942 -16 c-3 -3 -11 0 -18 7 -9 10 -8 11 6 5 10 -3 15 -9 12 -12z
m-608 -34 c-3 -7 -5 -2 -5 12 0 14 2 19 5 13 2 -7 2 -19 0 -25z m2560 0 c-3
-8 -6 -5 -6 6 -1 11 2 17 5 13 3 -3 4 -12 1 -19z m10 -40 c-3 -8 -6 -5 -6 6
-1 11 2 17 5 13 3 -3 4 -12 1 -19z m-449 -117 c10 11 12 7 12 -17 0 -22 -7
-34 -29 -47 l-30 -17 -3 90 c-4 113 13 140 27 45 8 -53 12 -64 23 -54z m459
57 c-3 -7 -5 -2 -5 12 0 14 2 19 5 13 2 -7 2 -19 0 -25z m-2580 -20 c-3 -8 -6
-5 -6 6 -1 11 2 17 5 13 3 -3 4 -12 1 -19z m647 6 c5 -14 4 -15 -9 -4 -17 14
-19 20 -6 20 5 0 12 -7 15 -16z m1943 -46 c-3 -7 -5 -2 -5 12 0 14 2 19 5 13
2 -7 2 -19 0 -25z m-590 -37 c-12 -105 -91 -207 -201 -261 -88 -44 -256 -76
-256 -50 0 6 12 10 28 10 111 1 270 67 333 138 39 45 79 134 79 176 0 21 7 36
18 36 3 0 2 -22 -1 -49z m-1967 -6 c0 -5 -5 -3 -10 5 -5 8 -10 20 -10 25 0 6
5 3 10 -5 5 -8 10 -19 10 -25z m1909 -33 c-36 -111 -154 -199 -301 -226 -59
-11 -44 9 17 23 128 29 226 103 260 197 9 27 20 56 23 64 12 33 13 -21 1 -58z
m-1044 48 c-3 -5 -14 -10 -23 -9 -14 0 -13 2 3 9 27 11 27 11 20 0z m-48 -6
c-3 -3 -12 -4 -19 -1 -8 3 -5 6 6 6 11 1 17 -2 13 -5z m1750 -51 c-3 -10 -5
-4 -5 12 0 17 2 24 5 18 2 -7 2 -21 0 -30z m-906 4 c-45 -118 -126 -214 -221
-262 -63 -32 -80 -30 -193 23 -99 46 -168 111 -204 188 -14 30 -23 57 -20 60
2 3 33 -6 68 -20 163 -65 299 -80 405 -48 38 12 92 35 119 51 28 17 51 30 52
30 1 1 -1 -9 -6 -22z m-946 -35 c49 -78 111 -137 173 -165 62 -28 189 -57 249
-57 44 0 83 -9 83 -19 0 -10 -157 6 -233 23 -76 18 -149 52 -197 92 -28 24
-120 154 -120 169 0 17 19 -1 45 -43z m-686 8 c11 -24 11 -24 -3 -6 -9 11 -16
24 -16 30 0 12 5 7 19 -24z m731 12 c0 -5 25 -36 55 -69 63 -70 117 -97 227
-114 92 -14 112 -22 72 -27 -48 -5 -169 24 -226 55 -33 17 -71 51 -100 88 -49
60 -56 75 -38 75 6 0 10 -4 10 -8z m1330 -202 c17 -96 33 -185 35 -196 4 -18
-2 -23 -34 -31 -38 -10 -39 -10 -45 18 -4 21 -11 29 -27 29 -25 0 -25 -5 5
-270 21 -184 30 -473 21 -661 l-7 -156 -686 -6 c-378 -3 -688 -5 -689 -4 -1 2
5 59 13 127 18 146 29 683 17 785 -6 57 -12 70 -27 73 -10 2 -22 -1 -25 -7 -5
-7 -18 -7 -44 0 -40 11 -44 21 -27 79 16 55 60 321 60 364 l0 39 53 -78 c28
-44 71 -93 94 -111 50 -38 134 -71 218 -87 51 -10 67 -18 105 -58 44 -44 134
-89 180 -89 45 0 48 -7 28 -73 -11 -34 -32 -93 -48 -132 -49 -116 -60 -156
-67 -230 -7 -90 11 -188 35 -183 39 7 112 173 143 323 l13 60 8 -85 c7 -71 16
-102 58 -190 27 -58 55 -127 62 -153 18 -70 38 -59 66 38 46 156 23 299 -83
507 -30 60 -55 110 -55 113 0 3 13 5 28 5 49 0 131 49 168 100 25 35 44 50 76
59 110 33 207 106 255 192 24 41 84 89 90 70 1 -3 16 -85 33 -181z m467 138
c-3 -7 -5 -2 -5 12 0 14 2 19 5 13 2 -7 2 -19 0 -25z m-2487 -18 c6 -11 8 -20
6 -20 -3 0 -10 9 -16 20 -6 11 -8 20 -6 20 3 0 10 -9 16 -20z m440 -170 c-46
-191 -50 -202 -68 -192 -10 7 -3 47 29 183 54 226 47 205 64 188 13 -12 9 -36
-25 -179z m2037 138 c-3 -8 -6 -5 -6 6 -1 11 2 17 5 13 3 -3 4 -12 1 -19z
m-2432 -40 c16 -24 22 -38 14 -31 -15 12 -53 73 -46 73 2 0 17 -19 32 -42z
m2396 -51 c-10 -9 -11 -8 -5 6 3 10 9 15 12 12 3 -3 0 -11 -7 -18z m-2320 -49
c24 -29 36 -47 26 -39 -20 16 -81 91 -74 91 2 0 24 -24 48 -52z m2279 -36 c0
-5 -7 -17 -15 -28 -14 -18 -14 -17 -4 9 12 27 19 34 19 19z m-220 -73 c0 -17
-25 -38 -34 -28 -2 2 -6 27 -10 54 l-7 50 26 -28 c14 -15 25 -37 25 -48z
m-1975 11 c21 -22 37 -40 34 -40 -3 0 -23 18 -44 40 -21 22 -37 40 -34 40 3 0
23 -18 44 -40z m2105 15 c-26 -28 -40 -32 -40 -12 0 10 30 29 59 36 3 1 -6
-10 -19 -24z m60 -8 c0 -2 -12 -14 -27 -28 l-28 -24 24 28 c23 25 31 32 31 24z
m-2113 -69 c-3 -8 -6 -5 -6 6 -1 11 2 17 5 13 3 -3 4 -12 1 -19z m2048 12 c-3
-5 -12 -10 -18 -10 -7 0 -6 4 3 10 19 12 23 12 15 0z m-2021 -69 c-2 -3 -12 3
-22 13 -16 17 -16 18 5 5 12 -7 20 -15 17 -18z m1893 23 c-3 -3 -12 -4 -19 -1
-8 3 -5 6 6 6 11 1 17 -2 13 -5z m-70 -20 c-3 -3 -12 -4 -19 -1 -8 3 -5 6 6 6
11 1 17 -2 13 -5z m-40 -10 c-3 -3 -12 -4 -19 -1 -8 3 -5 6 6 6 11 1 17 -2 13
-5z m-49 -11 c-11 -3 -18 -15 -19 -31 -1 -18 -3 -21 -6 -9 -7 27 4 47 24 46
17 -1 17 -2 1 -6z m-1521 -59 c-3 -3 -12 -4 -19 -1 -8 3 -5 6 6 6 11 1 17 -2
13 -5z m70 -20 c-3 -3 -12 -4 -19 -1 -8 3 -5 6 6 6 11 1 17 -2 13 -5z m1440
-41 c-3 -10 -5 -4 -5 12 0 17 2 24 5 18 2 -7 2 -21 0 -30z m-1430 -85 c-2 -18
-4 -6 -4 27 0 33 2 48 4 33 2 -15 2 -42 0 -60z m1440 -20 c-2 -13 -4 -5 -4 17
-1 22 1 32 4 23 2 -10 2 -28 0 -40z m10 -155 c-2 -16 -4 -3 -4 27 0 30 2 43 4
28 2 -16 2 -40 0 -55z m-1450 -190 c-2 -21 -4 -6 -4 32 0 39 2 55 4 38 2 -18
2 -50 0 -70z m1460 -140 c-2 -38 -3 -7 -3 67 0 74 1 105 3 68 2 -38 2 -98 0
-135z m-1470 -15 c-2 -13 -4 -5 -4 17 -1 22 1 32 4 23 2 -10 2 -28 0 -40z
m-10 -110 c-2 -13 -4 -5 -4 17 -1 22 1 32 4 23 2 -10 2 -28 0 -40z m-10 -85
c-3 -10 -5 -4 -5 12 0 17 2 24 5 18 2 -7 2 -21 0 -30z m1480 -35 c-2 -13 -4
-3 -4 22 0 25 2 35 4 23 2 -13 2 -33 0 -45z m-1490 -40 c-3 -7 -5 -2 -5 12 0
14 2 19 5 13 2 -7 2 -19 0 -25z m1281 -45 c-104 -2 -272 -2 -375 0 -104 1 -19
2 187 2 206 0 291 -1 188 -2z"/>
<path d="M1582 3844 c-27 -18 -28 -41 -4 -67 12 -15 14 -21 5 -24 -18 -6 -16
-23 1 -23 18 0 24 -19 28 -85 2 -42 0 -50 -15 -53 -27 -5 -69 7 -62 18 4 6 -7
10 -24 10 -23 0 -31 -5 -31 -17 0 -18 14 -46 21 -43 10 5 87 -14 113 -27 25
-13 30 -13 50 4 11 10 42 29 69 42 37 18 47 27 47 47 0 22 -4 25 -27 22 -16
-2 -27 -8 -26 -15 2 -11 -46 -33 -72 -33 -8 0 -15 24 -19 62 -5 52 -3 64 11
71 15 9 15 11 -1 22 -11 8 -13 15 -7 20 19 11 13 63 -8 75 -25 13 -22 13 -49
-6z m48 -33 c0 -27 -19 -36 -37 -18 -18 18 -9 37 18 37 12 0 19 -7 19 -19z"/>
<path d="M1358 3819 c-180 -28 -339 -66 -504 -121 -182 -59 -190 -64 -173
-101 7 -15 15 -27 18 -27 4 0 65 21 136 46 72 25 190 61 263 79 113 29 190 44
417 80 26 4 30 9 30 35 0 28 -3 30 -35 29 -19 -1 -87 -9 -152 -20z"/>
<path d="M1465 3709 c-110 -17 -329 -60 -405 -80 -123 -33 -329 -100 -335
-109 -8 -12 16 -60 30 -60 7 0 38 9 71 21 154 53 558 145 699 158 57 6 60 7
63 35 6 47 -11 51 -123 35z"/>
<path d="M3794 3499 c-10 -12 -53 -42 -96 -68 l-76 -47 24 -32 25 -31 49 30
c49 30 70 50 30 29 -29 -15 -25 -5 6 15 15 9 23 12 19 5 -5 -8 -3 -11 6 -8 8
3 14 10 14 16 0 6 6 17 14 24 11 11 13 11 6 -1 -5 -9 -3 -12 6 -9 8 3 13 10
12 16 -1 5 5 16 14 24 12 9 15 9 9 1 -4 -7 -3 -13 3 -13 25 0 22 25 -5 47 -35
28 -36 28 -60 2z m-88 -144 c-11 -8 -25 -15 -30 -15 -6 1 0 7 14 15 32 19 40
18 16 0z"/>
<path d="M4007 3502 c-23 -25 -23 -56 0 -48 10 4 14 4 11 0 -6 -6 161 -124
176 -124 2 0 14 13 25 29 l21 28 -57 38 c-58 38 -151 95 -157 95 -2 0 -10 -8
-19 -18z"/>
<path d="M4475 3494 c-22 -13 -62 -31 -90 -40 -27 -9 -51 -18 -53 -19 -1 -1 3
-15 10 -30 10 -23 16 -26 42 -21 33 7 174 75 183 89 6 10 -26 47 -41 46 -6 0
-29 -12 -51 -25z"/>
<path d="M4688 3496 c-18 -25 -15 -36 11 -36 14 0 14 2 1 11 -11 8 -9 9 10 3
14 -3 32 -10 40 -15 13 -7 13 -8 0 -9 -12 0 -11 -3 3 -11 10 -6 25 -8 33 -5 8
3 13 2 10 -3 -7 -11 43 -33 56 -25 7 4 8 2 4 -5 -4 -6 0 -14 10 -18 11 -4 23
2 35 18 10 13 19 27 19 30 0 10 -181 89 -204 89 -6 0 -19 -11 -28 -24z m147
-76 c3 -6 -1 -7 -9 -4 -18 7 -21 14 -7 14 6 0 13 -4 16 -10z"/>
<path d="M3006 3463 c-11 -77 -15 -83 -47 -83 -27 0 -29 -3 -29 -35 0 -31 3
-35 25 -35 30 0 30 4 5 -89 l-19 -75 22 -15 c12 -8 34 -27 50 -41 l28 -25 -55
-61 -55 -61 24 -23 24 -22 25 20 c14 10 41 38 59 60 l34 41 38 -39 38 -38 25
30 26 31 -46 42 -46 42 19 57 c11 32 23 87 26 122 5 54 9 64 24 64 15 0 19 8
19 40 0 31 -3 38 -15 34 -11 -5 -15 1 -15 20 0 23 -4 26 -35 26 -32 0 -35 -2
-35 -30 0 -25 -4 -30 -25 -30 -24 0 -25 1 -18 60 l6 60 -35 0 c-35 0 -36 -1
-42 -47z m99 -190 c-9 -67 -26 -133 -34 -133 -3 0 -14 7 -25 15 -17 13 -18 19
-6 82 15 83 15 83 47 83 24 0 25 -1 18 -47z"/>
<path d="M3220 3465 l0 -35 58 0 57 0 -3 -75 -4 -74 -66 -3 -67 -3 0 -35 0
-35 68 0 67 0 0 -152 0 -153 40 0 40 0 0 153 0 152 67 0 66 0 1 35 0 35 -67 3
-67 3 0 74 0 75 55 0 55 0 0 35 0 35 -150 0 -150 0 0 -35z"/>
<path d="M4678 3428 l-48 -31 -40 27 c-39 26 -41 26 -66 9 l-26 -17 26 -23 26
-22 -37 -10 c-35 -10 -163 -30 -190 -31 -8 0 -8 -7 0 -31 l12 -30 60 7 c32 3
89 15 125 24 63 18 64 18 43 0 -26 -21 -184 -80 -214 -80 -18 0 -19 -2 -4 -29
l15 -29 49 13 c45 12 51 11 66 -5 17 -19 12 -22 -118 -45 -33 -6 -37 -10 -31
-29 3 -11 9 -24 13 -27 7 -8 152 22 246 51 39 12 105 40 148 62 70 37 77 43
77 70 l0 30 54 -6 c50 -7 54 -6 60 16 11 43 8 48 -37 48 -44 0 -155 18 -170
27 -5 3 6 14 24 25 32 19 32 21 14 34 -10 8 -24 14 -29 14 -6 0 -4 5 4 10 8 5
11 9 5 9 -5 0 -31 -14 -57 -31z m14 -118 c88 -24 96 -31 27 -23 -30 3 -56 9
-59 12 -3 4 -16 12 -30 18 -38 17 -18 15 62 -7z m-25 -96 c-16 -9 -46 -21 -67
-29 -35 -12 -40 -12 -56 6 -26 29 -5 39 81 38 69 0 69 0 42 -15z"/>
<path d="M3811 3396 l-23 -24 31 -23 31 -23 -57 -17 c-32 -10 -84 -23 -115
-29 l-58 -11 15 -29 c19 -36 23 -38 60 -29 l30 7 -30 2 c-21 1 -6 7 49 21 92
22 114 19 29 -5 -43 -11 -48 -14 -18 -10 22 3 71 16 109 29 l69 24 74 -25 c50
-17 85 -23 106 -19 25 5 29 4 17 -5 -12 -9 -5 -10 30 -6 30 4 36 3 20 -3 -24
-7 -24 -8 8 -13 29 -4 35 -1 48 24 8 16 12 32 10 37 -3 5 -27 12 -53 16 -138
20 -190 43 -158 72 4 4 5 2 0 -6 -5 -9 -3 -12 6 -9 8 3 14 10 14 16 0 5 4 14
9 19 5 5 6 3 2 -4 -8 -15 10 -18 19 -4 3 5 -8 19 -25 31 l-31 22 -49 -32 -49
-31 -38 24 c-21 13 -43 26 -49 30 -6 3 -21 -4 -33 -17z m114 -106 c-3 -5 -12
-10 -18 -10 -7 0 -6 4 3 10 19 12 23 12 15 0z m296 -63 c-10 -9 -11 -8 -5 6 3
10 9 15 12 12 3 -3 0 -11 -7 -18z"/>
<path d="M3513 3372 c-29 -2 -43 -8 -43 -18 0 -10 13 -14 48 -14 26 0 54 -6
61 -12 8 -7 5 1 -5 17 -10 17 -18 30 -18 30 -1 0 -20 -1 -43 -3z"/>
<path d="M3720 3096 c0 -119 11 -169 38 -182 25 -11 350 -16 402 -6 28 5 44
13 42 21 -1 7 2 10 8 6 12 -8 30 36 30 75 0 23 -6 30 -31 39 -18 6 -34 11 -35
11 -2 0 -4 -15 -4 -33 0 -18 -5 -38 -12 -45 -13 -13 -321 -18 -352 -6 -9 3
-16 17 -16 30 l0 24 180 0 180 0 0 90 0 90 -215 0 -215 0 0 -114z m180 29 c0
-24 -3 -25 -55 -25 -52 0 -55 1 -55 25 0 24 3 25 55 25 52 0 55 -1 55 -25z
m180 0 c0 -24 -3 -25 -55 -25 -52 0 -55 1 -55 25 0 24 3 25 55 25 52 0 55 -1
55 -25z m-27 -82 c-51 -2 -135 -2 -185 0 -51 1 -10 3 92 3 102 0 143 -2 93 -3z
m134 -119 c-3 -3 -12 -4 -19 -1 -8 3 -5 6 6 6 11 1 17 -2 13 -5z m-139 -11
c-43 -2 -113 -2 -155 0 -43 1 -8 3 77 3 85 0 120 -2 78 -3z"/>
<path d="M4668 3134 c-69 -35 -177 -68 -260 -80 -53 -7 -56 -12 -30 -44 18
-23 19 -23 88 -7 69 16 69 16 93 -8 l24 -23 -66 -7 c-36 -4 -92 -8 -126 -9
-33 0 -61 -1 -61 -2 0 -1 5 -16 11 -34 l12 -33 86 7 c126 10 227 33 308 71
102 47 143 80 143 116 l0 29 -67 0 c-60 1 -66 2 -50 15 18 13 17 14 -10 28
-26 14 -32 13 -95 -19z m112 -79 c0 -8 -102 -55 -119 -55 -16 0 -51 28 -51 41
0 4 8 10 18 12 25 7 152 8 152 2z"/>
<path d="M4255 3150 c-3 -5 -15 -10 -26 -10 -25 0 -25 -26 0 -33 15 -4 22 2
30 24 10 29 8 38 -4 19z"/>
<path d="M3213 3124 c-4 -10 6 -27 26 -47 l31 -32 0 48 c0 44 -2 47 -25 47
-14 0 -28 -7 -32 -16z"/>
<path d="M2050 2984 c-75 -19 -159 -64 -179 -93 -14 -22 -9 -20 39 12 59 41
162 77 215 77 19 0 37 5 40 10 9 14 -50 11 -115 -6z"/>
<path d="M1275 2930 c-26 -6 -22 -8 25 -9 73 -2 168 -25 233 -56 l52 -26 -32
30 c-50 47 -205 81 -278 61z"/>
<path d="M1905 2860 c-3 -6 1 -7 9 -4 18 7 21 14 7 14 -6 0 -13 -4 -16 -10z"/>
<path d="M1520 2816 c0 -2 9 -6 20 -9 11 -3 18 -1 14 4 -5 9 -34 13 -34 5z"/>
<path d="M1375 2771 c-74 -19 -123 -60 -150 -125 -28 -65 -6 -120 62 -155 40
-21 41 -11 2 28 -44 44 -50 80 -23 137 26 54 45 62 26 11 -14 -40 -14 -46 4
-82 24 -49 62 -77 106 -78 104 -3 169 95 123 183 -19 37 -22 37 -27 1 -2 -17
-1 -28 3 -26 12 8 16 -29 7 -63 -10 -38 -58 -72 -102 -72 -41 0 -96 58 -96
102 0 41 44 101 58 80 7 -11 11 -7 16 12 7 27 18 30 81 26 16 -1 47 -9 68 -17
53 -22 57 -10 5 16 -50 24 -119 33 -163 22z"/>
<path d="M1985 2700 c-8 -27 12 -52 39 -48 16 2 21 10 21 33 0 25 -4 31 -27
33 -19 2 -28 -2 -33 -18z"/>
<path d="M1382 2633 c4 -37 52 -46 63 -12 8 25 -7 39 -43 39 -20 0 -23 -4 -20
-27z"/>
<path d="M1825 2400 c-22 -4 -70 -11 -107 -15 -38 -3 -68 -11 -68 -17 0 -22
43 -79 70 -93 39 -20 89 -19 126 4 32 20 64 74 64 110 0 23 -14 25 -85 11z"/>
<path d="M2446 2183 c-6 -14 -5 -15 5 -6 7 7 10 15 7 18 -3 3 -9 -2 -12 -12z"/>
</g>
</svg>
